<svg width="476.67141px" height="629px" viewBox="0 0 476.67141 629" version="1.1" xmlns="http://www.w3.org/2000/svg" xmlns:xlink="http://www.w3.org/1999/xlink">
    <g id="Page-1" stroke="none" stroke-width="1" fill="none" fill-rule="evenodd">
        <g id="Group">
            <path d="M407.971747,629 C407.760018,629 407.626802,629 407.580248,628.991775 L34.8206561,629 C27.5335081,629 20.716722,625.395419 16.6244747,619.364397 C12.5322274,613.333375 11.6975943,605.664669 14.396572,598.894168 C27.921525,565.095308 46.1322049,484.005904 16.1374975,320.661614 C-19.28095,127.781942 12.4279762,58.0747926 27.7047877,37.0574129 C31.8507908,31.3739653 38.4583802,28.009375 45.492272,28 L424.086969,28 C430.991881,27.9933644 437.498001,31.2348093 441.652452,36.7513939 C445.806904,42.2679785 447.126048,49.4174901 445.213931,56.0539338 C429.419469,110.675762 396.893811,255.40785 435.889013,419.224992 C465.452077,543.419805 451.240431,594.078409 434.112279,614.706049 C422.814859,628.310846 410.367183,629 407.971747,629 Z" id="Path" stroke="#3F3D56" stroke-width="5" fill-rule="nonzero"></path>
            <path d="M45.8395446,32 C39.996883,32.0077924 34.5082151,34.8021898 31.0637066,39.5227059 C16.05841,60.1669325 -15.0440192,128.86955 20.1406703,320.479257 C48.8172129,476.646006 34.9092139,559.225644 18.1919745,601.001902 C15.9031486,606.601213 16.5902525,612.977324 20.0194321,617.96014 C23.418147,622.987956 29.0917087,626 35.1594524,626 L408.304941,626 C408.893999,626.022705 420.922245,626.356128 432.004357,612.90482 C448.519071,592.858947 462.081181,543.234804 432.904853,420.663887 C393.673384,255.849933 426.39405,110.245992 442.282803,55.2952171 C443.869948,49.7833915 442.773388,43.8458722 439.322289,39.264992 C435.87119,34.6841119 430.467345,31.9931981 424.732888,32 L45.8395446,32 Z" id="Path" stroke="#3F3D56" stroke-width="5" fill="#FFFFFF" fill-rule="nonzero"></path>
            <path d="M319.46096,251 L160.46096,251 C156.042682,251 152.46096,247.418278 152.46096,243 C152.46096,238.581722 156.042682,235 160.46096,235 L319.46096,235 C323.879238,235 327.46096,238.581722 327.46096,243 C327.46096,247.418278 323.879238,251 319.46096,251 Z" id="Path" fill="#CCCCCC" fill-rule="nonzero"></path>
            <path d="M319.46096,319 L160.46096,319 C156.042682,319 152.46096,315.418278 152.46096,311 C152.46096,306.581722 156.042682,303 160.46096,303 L319.46096,303 C323.879238,303 327.46096,306.581722 327.46096,311 C327.46096,315.418278 323.879238,319 319.46096,319 Z" id="Path" fill="#CCCCCC" fill-rule="nonzero"></path>
            <path d="M319.46096,285 L160.46096,285 C156.042682,285 152.46096,281.418278 152.46096,277 C152.46096,272.581722 156.042682,269 160.46096,269 L319.46096,269 C323.879238,269 327.46096,272.581722 327.46096,277 C327.46096,281.418278 323.879238,285 319.46096,285 Z" id="Path" fill="#CCCCCC" fill-rule="nonzero"></path>
            <text id="SELECT" font-family="Pacifico-Regular, Pacifico" font-size="48" font-weight="normal" fill="#6C63FF">
                <tspan x="41.55696" y="195">SELECT</tspan>
            </text>
            <text id="FROM" font-family="Pacifico-Regular, Pacifico" font-size="48" font-weight="normal" fill="#6C63FF">
                <tspan x="42.10096" y="400">FROM</tspan>
            </text>
            <text id="SQL_FMT" font-family="Pacifico-Regular, Pacifico" font-size="48" font-weight="normal" fill="#6C63FF">
                <tspan x="152.69296" y="503">SQL_FMT</tspan>
            </text>
            <circle id="circle" fill="#6C63FF" fill-rule="nonzero" cx="422.5817" cy="54.08971" r="54.08971"></circle>
            <path d="M417.22171,74.723338 C416.004836,74.725384 414.820287,74.3317138 413.84671,73.60169 L413.78633,73.55641 L401.07453,63.83228 C399.472853,62.6043582 398.647931,60.6152271 398.910504,58.6141731 C399.173077,56.6131191 400.483254,54.90415 402.347504,54.1310179 C404.211754,53.3578858 406.346853,53.638048 407.94853,54.86597 L416.18222,61.17997 L435.6389,35.7966 C436.550067,34.60808 437.896055,33.830202 439.380759,33.634093 C440.865463,33.4379839 442.367261,33.8397083 443.55577,34.75089 L443.55741,34.75212 L443.43666,34.91979 L443.56066,34.75212 C446.032726,36.652033 446.500016,40.1946331 444.60515,42.67057 L421.71989,72.51357 C420.646735,73.9072942 418.985686,74.7216988 417.22668,74.71657 L417.22171,74.723338 Z" id="check" fill="#FFFFFF" fill-rule="nonzero"></path>
        </g>
    </g>
</svg>
